<svg id="iconce.com" width="256" height="256" viewBox="0 0 256 256" fill="none" xmlns="http://www.w3.org/2000/svg" xmlns:xlink="http://www.w3.org/1999/xlink"><defs><linearGradient id="r5" gradientUnits="userSpaceOnUse" gradientTransform="rotate(45)" style="transform-origin:center center"><stop stop-color="#5C5C5C"/><stop offset="1" stop-color="#0F1015"/></linearGradient><radialGradient id="r6" cx="0" cy="0" r="1" gradientUnits="userSpaceOnUse" gradientTransform="translate(256) rotate(90) scale(512)"><stop stop-color="white"/><stop offset="1" stop-color="white" stop-opacity="0"/></radialGradient></defs><rect id="r4" width="256" height="256" x="0" y="0" rx="64" fill="url(#r5)" stroke="#FFFFFF" stroke-width="0" stroke-opacity="100%" paint-order="stroke"/><svg xmlns="http://www.w3.org/2000/svg" width="128" height="128" viewBox="0 0 24 24" fill="none" stroke="#FFFFFF" stroke-width="2" stroke-linecap="round" stroke-linejoin="round" class="text-white" alignment-baseline="middle" x="64" y="64"><path d="M14 16H9m10 0h3v-3.15a1 1 0 0 0-.84-.99L16 11l-2.7-3.6a1 1 0 0 0-.8-.4H5.24a2 2 0 0 0-1.8 1.1l-.8 1.63A6 6 0 0 0 2 12.42V16h2"/><circle cx="6.5" cy="16.5" r="2.5"/><circle cx="16.5" cy="16.5" r="2.5"/></svg></svg>